<svg width="16" height="16" viewBox="0 0 16 16" fill="none" xmlns="http://www.w3.org/2000/svg">
<g id="Frame">
<path id="Rectangle 34624215 (Stroke)" fill-rule="evenodd" clip-rule="evenodd" d="M1.3 3V11C1.3 11.3866 1.6134 11.7 2 11.7H3.63962C4.4144 11.7 5.10224 12.1958 5.34725 12.9308L5.56812 13.5934L6.93431 12.2272C7.27188 11.8896 7.72972 11.7 8.20711 11.7H14C14.3866 11.7 14.7 11.3866 14.7 11V3C14.7 2.6134 14.3866 2.3 14 2.3H2C1.6134 2.3 1.3 2.6134 1.3 3ZM2 1C0.895431 1 0 1.89543 0 3V11C0 12.1046 0.895431 13 2 13H3.63962C3.85484 13 4.04591 13.1377 4.11396 13.3419L4.74417 15.2325C4.86171 15.5851 5.30924 15.6908 5.57206 15.4279L7.85355 13.1464C7.94732 13.0527 8.0745 13 8.20711 13H14C15.1046 13 16 12.1046 16 11V3C16 1.89543 15.1046 1 14 1H2Z" fill="#6C7380"/>
<path id="Vector 1 (Stroke)" fill-rule="evenodd" clip-rule="evenodd" d="M6.65 3.8501C7.00899 3.8501 7.3 4.14111 7.3 4.5001V8.3501H11.15C11.509 8.3501 11.8 8.64111 11.8 9.0001C11.8 9.35908 11.509 9.6501 11.15 9.6501H7.15C6.51487 9.6501 6 9.13523 6 8.5001V4.5001C6 4.14111 6.29101 3.8501 6.65 3.8501Z" fill="#6C7380"/>
</g>
</svg>
