<svg width="24" height="24" viewBox="0 0 24 24" fill="none" xmlns="http://www.w3.org/2000/svg">
<g id="Frame">
<path id="Vector" d="M17.55 5.2875C17.025 5.2875 16.6125 5.7 16.6125 6.225V16.575C16.6125 17.8125 16.125 18.9375 15.2625 19.8375C14.4 20.7 13.2375 21.1875 12 21.1875C9.45005 21.1875 7.38755 19.125 7.38755 16.575L7.38755 5.5125C7.38755 4.0125 8.58755 2.8125 10.0875 2.8125C10.8 2.8125 11.475 3.1125 12 3.6C12.525 4.125 12.7875 4.8 12.7875 5.5125V16.6125C12.7875 16.8375 12.675 17.0625 12.4875 17.25C12.3 17.4375 12.0375 17.5125 11.8125 17.5125C11.5875 17.5125 11.325 17.4 11.175 17.25C10.9875 17.0625 10.9125 16.8375 10.9125 16.6125V6.4125C10.9125 5.8875 10.5 5.475 9.97505 5.475C9.45005 5.475 9.03755 5.8875 9.03755 6.4125V16.6125C9.03755 17.3625 9.33755 18.0375 9.86255 18.6C10.3875 19.125 11.1 19.425 11.85 19.425C12.6 19.425 13.3125 19.125 13.8375 18.6375L13.875 18.6C14.4 18.075 14.7 17.4 14.7 16.65L14.7 5.55C14.7 4.3125 14.2125 3.1875 13.35 2.325C12.4875 1.4625 11.325 0.975 10.125 0.975C7.61255 0.975 5.55005 3.0375 5.55005 5.55L5.55005 16.575C5.55005 20.1375 8.47505 23.0625 12.0375 23.0625C13.7625 23.0625 15.375 22.3875 16.6125 21.15C17.85 19.9125 18.525 18.3 18.525 16.575V6.225C18.4875 5.7375 18.075 5.2875 17.55 5.2875Z" fill="#6C7380"/>
</g>
</svg>
