<svg width="14" height="14" viewBox="0 0 14 14" fill="none" xmlns="http://www.w3.org/2000/svg">
<g id="Frame" clip-path="url(#clip0_1269_3508)">
<path id="Vector" d="M10.2685 13.1679C10.0884 13.1679 9.88607 13.1162 9.69848 13.0224L7.01983 11.6826L4.32459 13.0202C4.1539 13.1111 3.95852 13.1588 3.75928 13.1588C3.50039 13.1598 3.24808 13.0772 3.03992 12.9233C2.6627 12.6403 2.46942 12.1502 2.55864 11.7038L3.10988 8.84415L0.997042 6.87494C0.836694 6.71247 0.721923 6.51067 0.664259 6.28981C0.606594 6.06895 0.608067 5.8368 0.66853 5.61668L0.672755 5.60216C0.826355 5.14181 1.2074 4.81925 1.66943 4.75736L4.60492 4.22361L5.92248 1.54762C6.13413 1.12393 6.5646 0.851685 7.01983 0.851685C7.4947 0.851685 7.9363 1.13418 8.12145 1.55531L9.4348 4.22281L12.3707 4.73611C12.5988 4.76916 12.8125 4.8674 12.9861 5.01903C13.1596 5.17065 13.2857 5.3692 13.349 5.59077C13.4201 5.80889 13.4292 6.04247 13.3751 6.26542C13.3211 6.48837 13.2062 6.69191 13.0431 6.8533L13.0359 6.86054L10.929 8.84454L11.4615 11.7093C11.5472 12.1674 11.365 12.6302 10.9857 12.9186C10.7825 13.0819 10.5291 13.17 10.2685 13.1679ZM7.02084 10.7172L9.86668 12.1403C9.95025 12.1825 10.0466 12.2089 10.1125 12.2089C10.2139 12.2089 10.3081 12.1777 10.3773 12.12L10.3902 12.1094C10.5519 11.988 10.6308 11.7952 10.5954 11.6064L10.0227 8.52134L12.2879 6.38821C12.4269 6.24721 12.4745 6.0453 12.4128 5.85964L12.4066 5.84011C12.3822 5.75213 12.3325 5.67325 12.2637 5.61325C12.1948 5.55324 12.1099 5.51476 12.0194 5.50257L12.0065 5.50054L8.87224 4.95261L7.46162 2.08736C7.39314 1.9273 7.20728 1.81113 7.01963 1.81113C6.83525 1.81113 6.65887 1.92658 6.56952 2.10483L5.16792 4.95135L2.01714 5.5237C1.82577 5.5477 1.6771 5.6748 1.60843 5.87301C1.55967 6.05414 1.61745 6.27237 1.75058 6.40844L4.01835 8.52165L3.42323 11.6083C3.38744 11.7868 3.47198 11.9922 3.62834 12.1096C3.70674 12.1685 3.8083 12.201 3.9148 12.201C3.99692 12.201 4.07563 12.1819 4.14348 12.1454L4.15327 12.1396L7.02084 10.7172Z" fill="#6C7380"/>
</g>
<defs>
<clipPath id="clip0_1269_3508">
<rect width="12.8" height="12.8" fill="white" transform="translate(0.600098 0.599976)"/>
</clipPath>
</defs>
</svg>
