<svg width="16" height="16" viewBox="0 0 16 16" fill="none" xmlns="http://www.w3.org/2000/svg">
<g id="&#231;&#189;&#145;&#231;&#187;&#156;&#229;&#155;&#190;&#230;&#160;&#135;">
<circle id="Ellipse 383" cx="8" cy="8" r="8" fill="#EBF1FF"/>
<path id="Vector" d="M11.6688 8.5395C10.9563 9.13117 10.0209 9.66242 8.923 10.0624C7.8605 10.4499 6.8355 10.6437 5.92925 10.6603C5.9105 10.6603 5.90216 10.6853 5.91675 10.6978C6.53341 11.2208 7.33341 11.5416 8.20841 11.5416C9.973 11.5416 11.4334 10.2478 11.7022 8.55825C11.7042 8.5395 11.6834 8.527 11.6688 8.5395ZM5.0105 8.71867C5.6355 8.852 6.76675 8.84992 8.28133 8.29992C9.85008 7.72909 10.7251 6.97075 11.098 6.46659C11.2063 6.32075 11.2105 6.12075 11.1063 5.97284C10.4667 5.05825 9.40841 4.45825 8.20841 4.45825C6.25216 4.45825 4.66675 6.04367 4.66675 7.99992C4.66675 8.11867 4.673 8.23742 4.6855 8.352C4.694 8.43961 4.73002 8.52228 4.78841 8.58815C4.84679 8.65403 4.92454 8.69971 5.0105 8.71867Z" fill="#5991FF"/>
<path id="Vector_2" d="M12.4895 5.54789C12.2708 4.94373 11.6104 4.57498 10.6999 4.45206C10.6062 4.43956 10.5583 4.56248 10.6354 4.61664C10.8687 4.78331 11.0833 4.97498 11.2791 5.18956C11.3166 5.23123 11.3645 5.26456 11.4145 5.28956C11.6624 5.41039 11.8333 5.57081 11.902 5.76039C12.1895 6.54789 10.8604 8.02498 8.49368 8.88539C6.12702 9.74581 4.16035 9.46873 3.87493 8.68123C3.79577 8.46039 3.8416 8.18748 4.00202 7.88748C4.03327 7.83123 4.05202 7.76873 4.05618 7.70414C4.07493 7.42706 4.12285 7.15831 4.19368 6.89789C4.21868 6.80623 4.10618 6.73956 4.03952 6.80831C3.35827 7.51456 3.05827 8.26248 3.28743 8.89373C3.74785 10.1562 6.12702 10.4104 8.70827 9.47081C11.2874 8.53539 12.9499 6.81039 12.4895 5.54789Z" fill="#5991FF"/>
</g>
</svg>
