<svg width="14" height="14" viewBox="0 0 14 14" fill="none" xmlns="http://www.w3.org/2000/svg">
<g id="Frame" clip-path="url(#clip0_2296_4533)">
<path id="Vector" d="M10.246 12.9162C10.0659 12.9162 9.86358 12.8645 9.67599 12.7707L6.99734 11.4309L4.3021 12.7685C4.13142 12.8594 3.93603 12.9071 3.73679 12.9071C3.4779 12.9081 3.22559 12.8255 3.01743 12.6716C2.64021 12.3886 2.44693 11.8985 2.53615 11.4521L3.08739 8.59244L0.974552 6.62323C0.814204 6.46076 0.699433 6.25896 0.641769 6.0381C0.584104 5.81724 0.585577 5.58509 0.64604 5.36498L0.650265 5.35045C0.803865 4.8901 1.18491 4.56754 1.64694 4.50565L4.58243 3.9719L5.89999 1.29591C6.11164 0.872226 6.54212 0.599976 6.99734 0.599976C7.47222 0.599976 7.91382 0.882475 8.09897 1.3036L9.41232 3.9711L12.3483 4.4844C12.5763 4.51745 12.79 4.61569 12.9636 4.76732C13.1371 4.91894 13.2632 5.11749 13.3266 5.33906C13.3976 5.55718 13.4067 5.79076 13.3526 6.01371C13.2986 6.23666 13.1837 6.4402 13.0206 6.60159L13.0134 6.60883L10.9065 8.59283L11.439 11.4576C11.5248 11.9157 11.3426 12.3785 10.9632 12.6669C10.7601 12.8302 10.5067 12.9183 10.246 12.9162Z" fill="#FFCB37"/>
</g>
<defs>
<clipPath id="clip0_2296_4533">
<rect width="12.8" height="12.8" fill="white" transform="translate(0.599609 0.599976)"/>
</clipPath>
</defs>
</svg>
