<svg width="16" height="16" viewBox="0 0 16 16" fill="currentColor" xmlns="http://www.w3.org/2000/svg">
<g id="Frame">
<path id="Vector" d="M4.53202 6.39995H2.42322C2.27459 6.92027 2.19946 7.45882 2.20002 7.99995C2.20002 8.55515 2.27762 9.09195 2.42402 9.59995H4.53282C4.44482 9.08795 4.40002 8.55435 4.40002 7.99995C4.40002 7.44555 4.44482 6.91195 4.53282 6.39995H4.53202ZM5.34562 6.39995C5.24623 6.92744 5.19721 7.46318 5.19922 7.99995C5.19922 8.55835 5.24722 9.09195 5.34562 9.59995H7.59922V6.39995H5.34562ZM6.51762 13.6088C5.66436 12.7013 5.04444 11.6001 4.71122 10.4H2.71762C3.07423 11.1826 3.60004 11.8764 4.25715 12.4312C4.91427 12.9861 5.68631 13.3883 6.51762 13.6088ZM7.59922 13.5528V10.4H5.54562C5.92162 11.6048 6.60562 12.6536 7.59922 13.5536V13.5528ZM6.51762 2.39195C5.68638 2.61234 4.91439 3.01439 4.25729 3.56912C3.60018 4.12386 3.07432 4.81746 2.71762 5.59995H4.71122C5.0442 4.39985 5.66385 3.29866 6.51682 2.39115L6.51762 2.39195ZM7.59922 2.44795C6.60562 3.34555 5.92242 4.39435 5.54562 5.59995H7.59922V2.44635V2.44795ZM11.4664 6.39995C11.5544 6.91195 11.5992 7.44555 11.5992 7.99995C11.5992 8.55435 11.5544 9.08795 11.4664 9.59995H13.576C13.7216 9.09195 13.7992 8.55515 13.7992 7.99995C13.7992 7.44475 13.7216 6.90795 13.5752 6.39995H11.4664ZM10.6528 6.39995H8.39922V9.59995H10.6528C10.7504 9.09195 10.7992 8.55835 10.7992 7.99995C10.7992 7.44155 10.7512 6.90795 10.6528 6.39995ZM9.48082 13.6088C10.3121 13.3883 11.0842 12.9861 11.7413 12.4312C12.3984 11.8764 12.9242 11.1826 13.2808 10.4H11.2872C10.9542 11.6 10.3346 12.7012 9.48162 13.6088H9.48082ZM8.39922 13.5528C9.39282 12.6536 10.076 11.6048 10.4528 10.4H8.39922V13.5536V13.5528ZM9.48082 2.39195C10.334 3.29914 10.9539 4.40006 11.2872 5.59995H13.2816C12.925 4.81732 12.3992 4.12355 11.7421 3.56867C11.085 3.01379 10.3129 2.61162 9.48162 2.39115L9.48082 2.39195ZM8.39922 2.44795V5.59995H10.4528C10.0768 4.39515 9.39282 3.34635 8.39922 2.44635V2.44795ZM7.99922 14.8C6.19575 14.8 4.46614 14.0835 3.19089 12.8083C1.91565 11.533 1.19922 9.80342 1.19922 7.99995C1.19922 6.19648 1.91565 4.46687 3.19089 3.19163C4.46614 1.91638 6.19575 1.19995 7.99922 1.19995C9.80269 1.19995 11.5323 1.91638 12.8075 3.19163C14.0828 4.46687 14.7992 6.19648 14.7992 7.99995C14.7992 9.80342 14.0828 11.533 12.8075 12.8083C11.5323 14.0835 9.80269 14.8 7.99922 14.8Z" fill="currentColor"/>
</g>
</svg>
