<svg width="24" height="24" viewBox="0 0 24 24" fill="none" xmlns="http://www.w3.org/2000/svg">
<g id="&#230;&#155;&#180;&#229;&#164;&#154;">
<g id="Union">
<mask id="path-1-inside-1_2277_5167" fill="white">
<path d="M12 1C18.0751 1 23 5.92487 23 12C23 18.0751 18.0751 23 12 23H1L3.2002 18.5996C1.81917 16.7611 1 14.4764 1 12C1 5.92487 5.92487 1 12 1Z"/>
</mask>
<path d="M1 23L-0.788854 22.1056L-2.23607 25H1V23ZM3.2002 18.5996L4.98905 19.494L5.5423 18.3875L4.7993 17.3984L3.2002 18.5996ZM12 1V3C16.9706 3 21 7.02944 21 12H23H25C25 4.8203 19.1797 -1 12 -1V1ZM23 12H21C21 16.9706 16.9706 21 12 21V23V25C19.1797 25 25 19.1797 25 12H23ZM12 23V21H1V23V25H12V23ZM1 23L2.78885 23.8944L4.98905 19.494L3.2002 18.5996L1.41134 17.7052L-0.788854 22.1056L1 23ZM3.2002 18.5996L4.7993 17.3984C3.66915 15.8939 3 14.0279 3 12H1H-1C-1 14.925 -0.0308027 17.6283 1.60109 19.8008L3.2002 18.5996ZM1 12H3C3 7.02944 7.02944 3 12 3V1V-1C4.8203 -1 -1 4.8203 -1 12H1Z" fill="#2B2F33" mask="url(#path-1-inside-1_2277_5167)"/>
</g>
<rect id="Rectangle 34624216" x="7" y="11" width="10" height="2" rx="1" fill="#2B2F33"/>
<rect id="Rectangle 34624217" x="13" y="7" width="10" height="2" rx="1" transform="rotate(90 13 7)" fill="#2B2F33"/>
</g>
</svg>
