<svg width="16" height="16" viewBox="0 0 16 16" fill="none" xmlns="http://www.w3.org/2000/svg">
<rect width="16" height="16" rx="3.2" fill="#2894FF"/>
<path d="M7.5 11.5V6C7.5 5.60218 7.34196 5.22065 7.06066 4.93934C6.77936 4.65804 6.39782 4.5 6 4.5H3.5V11.5H7.5ZM8 4.5C8.23265 4.18928 8.53457 3.9371 8.88175 3.76351C9.22894 3.58992 9.61183 3.49969 10 3.5H13.5V12.5H2.5V3.5H6C6.818 3.5 7.544 3.8925 8 4.5ZM8.5 6V11.5H12.5V4.5H10C9.60217 4.5 9.22064 4.65804 8.93934 4.93934C8.65803 5.22065 8.5 5.60218 8.5 6Z" fill="white"/>
</svg>
