<svg width="30" height="30" viewBox="0 0 30 30" fill="none" xmlns="http://www.w3.org/2000/svg">
<g id="Frame">
<rect width="30" height="30" rx="8" fill="white"/>
<path id="Vector" d="M14.9986 5C17.3028 4.99967 19.5365 5.79513 21.3219 7.25188C23.1073 8.70863 24.3348 10.7373 24.7969 12.9948C25.2589 15.2522 24.9272 17.6 23.8578 19.6411C22.7883 21.6822 21.0468 23.2913 18.9277 24.1964C16.8086 25.1014 14.442 25.2469 12.228 24.6081C10.014 23.9694 8.08855 22.5856 6.77722 20.6908C5.46589 18.7961 4.84915 16.5066 5.03131 14.2095C5.21346 11.9124 6.18332 9.74875 7.77688 8.08434C7.87189 7.98426 7.98738 7.90586 8.11547 7.8545C8.24355 7.80315 8.38121 7.78003 8.51905 7.78675L8.65278 7.80361L8.78411 7.83735C8.86965 7.86626 8.95278 7.90964 9.02868 7.96265L9.13953 8.05422L15.6648 14.3036C15.8326 14.4639 15.937 14.6794 15.9587 14.9105C15.9804 15.1416 15.9179 15.3727 15.7829 15.5614L15.6901 15.6711L13.2648 18.1735C13.766 18.4205 14.3251 18.5542 14.9082 18.5542C16.9251 18.5542 18.5528 16.959 18.5528 15C18.5528 13.041 16.9263 11.4458 14.9082 11.4458C14.6526 11.4458 14.4074 11.3442 14.2266 11.1635C14.0459 10.9827 13.9443 10.7376 13.9443 10.4819C13.9443 10.2263 14.0459 9.98114 14.2266 9.80038C14.4074 9.61962 14.6526 9.51807 14.9082 9.51807C17.9805 9.51807 20.4805 11.9687 20.4805 15C20.4805 18.0313 17.9817 20.4819 14.9082 20.4819C13.8349 20.4842 12.7834 20.1789 11.8781 19.6024L10.1082 21.4241C11.1279 22.2 12.3177 22.722 13.5791 22.9469C14.8406 23.1719 16.1374 23.0933 17.3625 22.7177C18.5875 22.3421 19.7055 21.6803 20.6241 20.7869C21.5427 19.8936 22.2354 18.7944 22.645 17.5803C23.0546 16.3662 23.1692 15.072 22.9795 13.8048C22.7898 12.5376 22.3012 11.3338 21.554 10.2928C20.8068 9.25189 19.8226 8.40378 18.6826 7.81863C17.5427 7.23347 16.2799 6.92808 14.9986 6.92771C14.7429 6.92771 14.4978 6.82616 14.317 6.6454C14.1362 6.46465 14.0347 6.21949 14.0347 5.96386C14.0347 5.70822 14.1362 5.46306 14.317 5.28231C14.4978 5.10155 14.7429 5 14.9986 5Z" fill="url(#paint0_linear_1398_4604)"/>
</g>
<defs>
<linearGradient id="paint0_linear_1398_4604" x1="15" y1="5" x2="15" y2="25" gradientUnits="userSpaceOnUse">
<stop stop-color="#80B5FF"/>
<stop offset="1" stop-color="#2871FF"/>
</linearGradient>
</defs>
</svg>
